{
	"asset":{
		"generator":"Khronos glTF Blender I/O v4.3.47",
		"version":"2.0"
	},
	"scene":0,
	"scenes":[
		{
			"name":"Scene",
			"nodes":[
				0
			]
		}
	],
	"nodes":[
		{
			"mesh":0,
			"name":"BaseGlAxesNegY"
		}
	],
	"materials":[
		{
			"doubleSided":true,
			"name":"a_position",
			"pbrMetallicRoughness":{
				"metallicFactor":0,
				"roughnessFactor":0.5
			}
		}
	],
	"meshes":[
		{
			"name":"Cube.008",
			"primitives":[
				{
					"attributes":{
						"POSITION":0,
						"NORMAL":1,
						"TEXCOORD_0":2
					},
					"indices":3,
					"material":0
				}
			]
		}
	],
	"accessors":[
		{
			"bufferView":0,
			"componentType":5126,
			"count":1470,
			"max":[
				1,
				1,
				1.000000238418579
			],
			"min":[
				-2.427697864959555e-08,
				-1.4994293451309204e-07,
				-0.025000035762786865
			],
			"type":"VEC3"
		},
		{
			"bufferView":1,
			"componentType":5126,
			"count":1470,
			"type":"VEC3"
		},
		{
			"bufferView":2,
			"componentType":5126,
			"count":1470,
			"type":"VEC2"
		},
		{
			"bufferView":3,
			"componentType":5123,
			"count":1890,
			"type":"SCALAR"
		}
	],
	"bufferViews":[
		{
			"buffer":0,
			"byteLength":17640,
			"byteOffset":0,
			"target":34962
		},
		{
			"buffer":0,
			"byteLength":17640,
			"byteOffset":17640,
			"target":34962
		},
		{
			"buffer":0,
			"byteLength":11760,
			"byteOffset":35280,
			"target":34962
		},
		{
			"buffer":0,
			"byteLength":3780,
			"byteOffset":47040,
			"target":34963
		}
	],
	"buffers":[
		{
			"byteLength":50820,
			"uri":"blendaxes1.bin"
		}
	]
}
